<svg width="325" height="325" viewBox="0 0 325 325" fill="none" xmlns="http://www.w3.org/2000/svg">
<path d="M104 42.3666C104.326 42.3768 105.342 42.4292 105.562 42.2787C126.144 28.2653 149.344 20.0467 174.464 19.0609C210.889 17.9354 246.051 32.4599 271.063 58.962C295.139 84.7506 308.129 118.96 307.238 154.229C306.152 187.017 281.715 228.571 261.5 254C260.5 254.5 255 253.5 254 253C255.086 250.256 269.94 235.227 270.962 232.224C274.012 223.266 276.699 214.164 279.554 205.144L286.051 184.531C286.993 181.551 289.405 174.548 289.605 171.76C289.323 171.276 288.255 170.824 287.718 170.675C279.212 168.305 270.604 166.109 262.085 163.799C265.734 154.661 270.768 145.578 274.801 136.555C275.224 135.609 276.744 133.954 275.809 133.168C274.489 133.286 271.925 139.437 271.239 140.874C268.851 145.864 266.525 150.883 264.263 155.931C263.644 157.331 261.498 162.564 260.692 163.454C259.649 163.62 256.935 162.212 255.47 161.851C255.309 158.318 254.046 134.286 253.113 132.887C252.958 132.653 252.984 132.729 252.666 132.677L252.347 132.96C251.951 134.095 253.998 158.374 254.104 161.814C249.37 161.976 242.65 162.988 237.615 163.42L225.586 164.408C223.44 164.583 220.388 164.742 218.345 165.154C217.885 165.526 217.574 165.884 217.169 166.317C216.852 167.634 216.587 170.377 216.413 171.8C215.929 175.672 215.502 179.551 215.13 183.436L211.646 217.595C211.123 223.089 210.771 228.596 210.105 234.076C209.992 235.012 209.9 235.949 209.705 236.874L209.166 236.545C209.327 235.823 209.503 234.017 209.159 233.363C205.703 226.8 198.067 223.069 191.396 220.582C187.781 219.234 187.05 214.151 186.096 210.872C185.513 208.799 184.817 206.76 184.011 204.763C180.794 196.923 174.82 188.5 167.91 183.502C164.486 181.024 160.898 179.433 157.038 177.81C160.522 176.223 161.971 174.105 164.655 172.881C174.43 168.421 184.288 164.101 194.139 159.813C196.415 158.822 198.696 157.945 200.956 156.916C201.463 155.221 201.917 151.044 202.16 149.186C202.822 144.091 203.446 138.992 204.033 133.887C202.611 131.666 197.26 126.172 195.044 124.761C190.686 126.323 185.527 128.656 181.287 130.597C164.882 138.104 147.927 145.197 131.65 152.896C130.75 148.266 128.809 144.011 125.578 140.56C127.062 139.89 130.493 138.457 130.986 136.865C131.752 134.396 128.829 129.021 127.428 126.97C126.879 126.167 125.475 125.419 125.311 124.715C124.868 122.805 126.198 119.773 126.981 118.179C128.765 115.545 130.221 114.547 133.174 113.593C139.943 112.241 146.819 113.587 153.503 110.683C156.816 109.242 158.248 108.432 160.792 105.854C164.743 104.989 168.151 104.148 171.878 102.375C179.318 98.8363 186.228 91.4096 188.949 83.6036C189.813 81.1242 190.361 79.059 189.1 76.5694C188.193 74.7775 186.15 73.1594 184.211 72.6996C180.191 71.7458 174.995 72.3822 170.827 72.5634C165.211 72.8392 159.58 73.3572 153.966 73.6285C151.381 73.7536 147.023 74.0437 144.639 73.2353C143.798 72.28 142.575 70.3887 141.707 69.2829C137.977 64.5289 134.693 61.986 129.215 59.6285C130.492 56.798 132.385 52.6527 133.061 49.6782C127.708 46.2219 117.869 44.2414 111.471 43.1008C109.149 42.6869 106.192 42.8316 104 42.3666Z" fill="black"/>
<path d="M237.847 47.1924C241.629 46.8137 245.412 47.9135 248.402 50.2611C251.363 52.5501 253.491 56.2492 253.934 59.975C254.372 63.8197 253.245 67.6791 250.806 70.6835C248.328 73.7903 245.307 75.1097 241.454 75.528C236.608 75.4953 232.903 74.4578 229.413 70.8393C228.701 70.1017 227.543 68.3253 227.033 67.8997C226.516 67.8524 226.342 67.8362 225.821 67.7166C225.43 67.1329 225.71 66.0122 225.49 65.3105C222.68 56.3704 228.59 48.3965 237.847 47.1924Z" fill="#060730"/>
<path d="M238.625 48.1536C245.645 47.9559 249.748 51.3751 252.481 57.506C247.159 60.8766 243.541 62.871 237.489 64.6467C233.949 65.4234 230.359 66.3295 226.805 66.9992C226.76 65.2472 225.941 63.2998 225.847 61.4253C225.469 53.8659 231.447 48.6703 238.625 48.1536Z" fill="#FEFDFD"/>
<path d="M231.964 54.5811C232.21 54.8734 231.747 55.4088 231.603 55.7332C231.021 57.0351 230.203 58.3957 230.321 59.868C228.62 58.8543 231.08 55.5824 231.964 54.5811Z" fill="#05050C"/>
<path d="M246.252 55.6348C246.88 56.1423 247.376 58.1503 247.421 58.9717C246.265 58.6874 246.327 56.6669 246.252 55.6348Z" fill="#05050C"/>
<path d="M240.809 50.6881C242.08 50.4834 244.409 51.1124 245.294 52.0671C244.604 51.9799 241.444 51.0083 240.809 50.6881Z" fill="#05050C"/>
<path d="M246.796 54.7307C248.246 55.4927 248.601 56.8289 248.251 58.3492C248.417 58.5555 246.762 54.6006 246.796 54.7307Z" fill="#05050C"/>
<path d="M233.238 56.9688L233.333 57.1195C232.677 58.2338 232.242 59.1089 231.683 60.2794C230.826 59.2761 232.509 57.6521 233.238 56.9688Z" fill="#05050C"/>
<path d="M252.511 58.5459C252.722 58.6814 252.788 58.8268 252.828 59.1007C254.62 71.5783 242.343 78.8349 232.034 71.7896C230.357 70.5791 229.306 69.4464 228.183 67.7281C237.855 65.5226 244.124 64.4679 252.511 58.5459Z" fill="#FEFDFD"/>
<path d="M241.734 69.0049L241.844 69.0179L241.963 69.1709C241.407 70.6131 238.851 70.72 237.548 70.3728L237.24 70.0405C237.532 69.726 239.3 70.0342 240.033 69.825C240.784 69.6108 241.084 69.3937 241.734 69.0049Z" fill="#05050C"/>
<path d="M250.005 64.0723C250.864 65.0466 249.128 67.7409 248.449 68.6042L248.285 68.423C248.275 68.1106 249.782 64.7121 250.005 64.0723Z" fill="#05050C"/>
<path d="M277.941 88.2422L278.749 88.2688C280.539 89.1937 279.129 95.8857 278.753 97.7046C280.138 98.5121 287 101.339 286.187 103.297C285.063 105.168 281.352 104.371 279.802 105.006C276.331 106.428 279.829 114.461 276.377 115.596C274.051 115.226 271.328 109.521 269.542 107.934C268.87 107.338 268.678 107.383 267.812 107.451C266.011 108.037 259.758 110.334 258.46 108.822C257.987 106.63 262.963 102.362 264.018 100.164C263.202 98.2569 260.492 93.5593 261.079 91.835C261.936 89.314 268.066 93.8589 269.302 94.513C272.218 92.7976 274.888 89.7126 277.941 88.2422Z" fill="#FEFDFD"/>
<path d="M164.328 40.7029C164.13 39.2858 163.207 35.2611 164.432 34.4619C165.855 34.4829 168.734 37.2501 169.894 38.2546C171.646 37.6132 173.638 35.8968 175.343 36.2028C175.889 36.5995 175.71 36.4265 176.006 37.0943C175.95 38.4263 174.988 40.5576 174.33 41.6989C174.932 42.2406 177.812 44.826 177.916 45.4132L177.901 45.4672C178.129 46.2609 178.206 46.1457 177.986 46.8294C176.341 47.9948 173.395 45.4745 171.791 46.0299C170.462 46.4895 167.503 52.6546 165.871 51.6517C165.211 50.3631 165.202 47.1807 164.904 45.4335C163.828 45.3481 158.787 45.7433 159.062 44.0212C159.939 42.8837 162.903 41.5208 164.328 40.7029Z" fill="#FEFDFD"/>
<path d="M176.006 37.0938C175.949 38.4258 174.988 40.557 174.329 41.6983C174.427 41.9338 174.603 42.3099 174.653 42.5435C174.227 42.2439 174.235 42.2617 173.921 41.8507C174.137 40.969 175.578 38.19 176.006 37.0938Z" fill="#292830"/>
<path d="M174.653 42.5434C174.603 42.3098 174.427 41.9337 174.329 41.6982C174.931 42.24 177.811 44.8254 177.916 45.4126L177.901 45.4665C176.892 44.6458 175.606 43.4394 174.653 42.5434Z" fill="#4D414A"/>
<path d="M237.865 117.227C239.272 118.457 239.527 118.871 240.447 120.475C241.299 120.015 243.996 118.249 244.596 119.597C244.414 120.811 243.644 121.563 242.871 122.529L243.174 122.989C243.754 123.481 244.465 124.061 244.87 124.703L244.754 124.978L245.312 125.633C245.424 126.219 245.489 125.975 245.21 126.41C244.236 126.793 242.025 125.983 240.942 125.665C240.437 126.487 239.271 128.773 238.343 128.916C237.628 128.322 237.62 126.211 237.537 125.251C236.587 124.895 234.337 124.189 233.985 123.266C234.472 122.444 236.454 122.057 237.419 121.693C237.609 120.138 237.603 118.9 237.865 117.227Z" fill="#FEFDFD"/>
<path d="M242.871 122.528L243.174 122.988C243.754 123.48 244.465 124.061 244.869 124.702L244.754 124.978C244.049 124.349 242.839 123.481 242.871 122.528Z" fill="#292830"/>
<path d="M243.174 122.988C243.754 123.48 244.465 124.061 244.869 124.702C244.273 124.312 243.613 123.543 243.174 122.988Z" fill="#6F6C7D"/>
<path d="M212.688 78.3656C214.004 78.0507 215.33 78.8474 215.671 80.1572C216.012 81.4674 215.242 82.8089 213.939 83.1755C213.073 83.4193 212.143 83.1758 211.507 82.5392C210.871 81.9025 210.629 80.9719 210.874 80.1064C211.119 79.2406 211.813 78.575 212.688 78.3656Z" fill="#FEFDFD"/>
<path d="M283.477 151.558C283.659 151.548 283.841 151.542 284.022 151.543C284.639 151.551 284.803 151.66 285.211 152.069C285.679 153.12 285.051 153.826 284.316 154.514C282.051 154.741 281.923 152.778 283.477 151.558Z" fill="#FEFDFD"/>
<path d="M202.079 196.285C202.831 196.021 203.655 196.417 203.919 197.169C204.183 197.922 203.787 198.746 203.034 199.009C202.282 199.273 201.459 198.877 201.195 198.125C200.931 197.373 201.327 196.549 202.079 196.285Z" fill="#FEFDFD"/>
<path d="M201.463 57.3925C202.148 57.09 202.95 57.3779 203.286 58.0472C203.621 58.7163 203.373 59.531 202.721 59.8992C202.27 60.1537 201.715 60.1391 201.278 59.8614C200.841 59.5837 200.592 59.0879 200.631 58.5712C200.67 58.0548 200.99 57.6016 201.463 57.3925Z" fill="#FEFDFD"/>
<path d="M226.992 100.664C227.667 100.321 228.491 100.593 228.829 101.271C229.166 101.948 228.887 102.77 228.207 103.102C227.535 103.431 226.724 103.155 226.39 102.486C226.057 101.816 226.325 101.003 226.992 100.664Z" fill="#FEFDFD"/>
<path d="M290.768 125.329C291.208 125.145 291.713 125.212 292.089 125.506C292.465 125.799 292.654 126.273 292.581 126.744C292.51 127.216 292.189 127.612 291.743 127.78C291.069 128.034 290.317 127.701 290.052 127.033C289.786 126.365 290.105 125.606 290.768 125.329Z" fill="#FEFDFD"/>
<path d="M168.802 114.989C170.679 115.126 170.748 116.318 169.806 117.647C168.033 117.571 167.687 116.258 168.802 114.989Z" fill="#FEFDFD"/>
<path d="M213.452 44.8475C213.821 44.7022 214.24 44.7711 214.543 45.0266C214.846 45.2824 214.985 45.6835 214.904 46.0717C214.823 46.4599 214.536 46.7728 214.156 46.8861C213.602 47.0518 213.016 46.7509 212.827 46.2044C212.638 45.6578 212.914 45.0592 213.452 44.8475Z" fill="#FEFDFD"/>
<path d="M40.0674 110.871C42.6061 118.564 44.2007 124.661 50.1989 130.96C49.3505 132.688 46.9349 138.666 47.6995 140.361C49.4232 144.183 54.8152 146.229 58.5949 147.231C50.6451 174.793 57.1896 201.931 70.5314 226.666C71.4883 228.44 72.667 230.345 73.9036 231.928C65.7214 238.324 58.5813 245.693 57.2705 256.476C56.8122 259.957 56.9614 263.491 57.7116 266.92C56.285 267.421 54.7416 267.998 53.3105 268.453C53.2416 268.236 53.0169 268.025 52.8109 267.937C32.7073 259.355 21.5868 240.956 17.0622 220.272C9.47927 185.605 18.618 149.629 35.4701 119.061C36.9424 116.39 38.4427 113.426 40.0674 110.871Z" fill="black"/>
<path d="M39.589 198.751L39.6623 198.564C43.3592 197.069 41.1289 203.588 40.6452 204.905C41.8427 205.643 45.5021 207.739 44.6595 209.39C44.4465 209.49 44.4256 209.556 44.2881 209.508C42.527 209.898 40.5786 209.937 38.7622 210.125C38.4524 210.793 38.0446 211.584 37.8576 212.282C38.0557 213.215 36.9725 215.669 36.1682 216.29C35.6763 216.387 35.6858 216.449 35.1675 216.178C34.2341 215.69 32.3898 211.039 32.2568 210.304L31.9819 210.115C31.2985 210.088 31.2248 210.069 30.5787 210.245L30.61 210.277L30.4841 210.417C29.3133 210.649 26.4322 210.876 25.6322 209.897C25.2034 208.029 29.1193 205.755 30.4269 204.969C30.1384 203.394 28.5729 200.3 29.4997 199.02C30.5091 198.561 32.226 199.548 32.6465 200.353C33.3365 200.905 33.984 201.279 34.733 201.739C35.3249 201.363 36.6249 200.525 37.2708 200.483C38.0468 199.91 38.8196 199.333 39.589 198.751Z" fill="#FEFDFD"/>
<path d="M30.4269 204.969C30.1384 203.394 28.5729 200.301 29.4997 199.02C30.5091 198.561 32.226 199.548 32.6465 200.353C31.6971 199.775 30.9903 199.139 29.9301 199.372C28.8588 200.349 30.4571 203.576 30.7832 205.014C29.5654 205.813 25.1687 208.236 26.2881 209.841C27.5673 210.53 29.0942 210.295 30.5787 210.246L30.61 210.277L30.4841 210.418C29.3133 210.65 26.4322 210.877 25.6322 209.897C25.2034 208.029 29.1193 205.756 30.4269 204.969Z" fill="#292830"/>
<path d="M39.5889 198.751L39.6622 198.564C43.3591 197.069 41.1288 203.588 40.6451 204.905C41.8426 205.643 45.502 207.739 44.6594 209.39C44.4464 209.49 44.4255 209.556 44.288 209.508L44.5115 208.975C44.2261 207.456 41.6544 205.92 40.3601 204.999C40.7362 203.388 42.1762 200.078 41.0466 198.805C40.5128 198.518 40.1973 198.649 39.5889 198.751Z" fill="#292830"/>
<path d="M37.8577 212.282C38.0557 213.215 36.9725 215.669 36.1683 216.29C35.6763 216.387 35.6858 216.449 35.1676 216.178C34.2341 215.69 32.3898 211.039 32.2568 210.304C33.4331 211.749 34.316 215.333 35.4094 215.976C36.8056 215.891 37.3949 213.436 37.8577 212.282Z" fill="#292830"/>
<path d="M34.7324 201.739C35.3243 201.363 36.6243 200.525 37.2702 200.482C36.5612 201.052 36.0769 201.525 35.2244 201.839C35.0847 201.814 34.8578 201.783 34.7324 201.739Z" fill="#292830"/>
<path d="M35.9583 155.005C36.8428 154.606 37.8829 155.004 38.2752 155.891C38.6678 156.778 38.2619 157.816 37.3716 158.202C36.4906 158.583 35.4667 158.183 35.0785 157.304C34.69 156.426 35.083 155.399 35.9583 155.005Z" fill="#FEFDFD"/>
<path d="M50.1294 231.214C52.4038 231.107 53.6536 232.742 51.8293 234.446C49.6965 234.714 48.4248 232.859 50.1294 231.214Z" fill="#FEFDFD"/>
<path d="M254.125 252.762C256.623 253.598 258.846 253.706 261.44 253.907C259.916 255.321 258.531 256.929 257.005 258.395C253.453 261.756 249.713 264.913 245.803 267.849C218.95 287.776 190.415 296.182 157.677 299.698C145.707 301.004 133.662 301.488 121.626 301.147C120.026 301.089 118.427 300.99 116.832 300.849C117.453 300.662 119.833 299.593 120.611 299.273L130.259 295.294L161.18 282.798L205.377 265.053C209.008 263.576 212.648 262.12 216.297 260.686C219.963 259.28 222.991 258.287 226.605 256.607C229.306 257.6 231.96 258.767 234.674 259.778C240.48 258.131 248.311 254.831 254.125 252.762Z" fill="black"/>
<path d="M117.615 270.491C120.722 269.49 126.798 266.765 130.034 265.427C137.172 262.463 144.356 259.609 151.582 256.867C154.299 257.606 158.25 257.605 161.061 258.092C164.119 258.622 166.925 259.455 170.042 259.795C171.369 259.94 175.522 259.751 176.278 260.161C153.395 268.861 130.746 278.165 108.356 288.063L91.0254 295.726C87.5685 297.25 84.1877 298.598 80.7812 300.242C75.5619 298.867 70.4399 297.12 65.3428 295.352C70.166 293.375 77.3795 289.896 82.0435 288.326C82.8039 288.847 88.983 289.302 90.2161 289.339C97.388 289.552 106.44 287.386 111.808 282.358C114.821 279.536 117.55 274.714 117.615 270.491Z" fill="#DF9285"/>
<path d="M209.658 237.044L210.197 237.373C209.772 240.646 209.429 244.412 208.944 247.578C200.485 250.567 192.528 253.751 184.179 256.954C182.18 257.72 177.953 259.734 176.278 260.161C175.522 259.751 171.37 259.94 170.042 259.795C166.926 259.454 164.119 258.622 161.061 258.092C158.251 257.605 154.3 257.606 151.582 256.867C152.262 256.58 156.686 254.785 157.199 254.763C159.865 254.649 163.57 255.314 166.37 255.508C171.943 255.893 178.182 256.041 183.706 255.209C187.276 254.508 192.594 254.254 194.914 251.137C196.892 248.477 194.981 244.951 192.51 243.346C193.308 242.969 195.554 242.994 196.551 242.735C200.137 241.806 207.771 240.479 209.658 237.044Z" fill="#C8706A"/>
<path d="M127.473 118.678C127.139 118.875 127.02 119.046 126.747 119.327C127.024 118.783 127.118 118.192 127.488 117.676C128.963 115.62 131.076 114.362 133.534 113.85L133.666 114.092C130.712 115.046 129.257 116.044 127.473 118.678Z" fill="#060730"/>
<path d="M84.8423 149.794C81.2812 151.868 77.8713 153.882 75.3706 157.255C74.1795 158.861 72.2555 162.252 72.5497 164.243C72.8855 164.599 72.677 164.482 73.2365 164.524C73.8897 163.613 74.7778 160.687 75.5515 159.28C77.6847 155.401 83.3436 151.776 87.2246 150.015C87.9171 149.701 95.2299 149.339 96.6045 149.186C102.57 148.551 108.468 147.388 114.228 145.711C116.948 147.595 121.703 150.199 123.736 152.325C127.344 156.097 127.451 163.103 127.252 167.984C123.754 168.71 117 169.03 113.653 167.914C112.83 167.056 112.125 165.902 111.561 164.86C109.963 165.186 110.775 165.793 110.027 165.727L109.982 165.578C108.954 165.505 108.71 165.597 107.719 165.813C105.556 162.81 103.127 160.052 100.951 157.078C100.339 156.242 100.668 154.388 99.4438 153.566C98.8446 153.853 99.327 154.256 98.89 155.264C97.9048 155.054 97.4211 152.927 95.8015 153.517L95.693 153.838C95.8583 154.309 100.733 159.341 101.498 160.291C103.105 162.288 104.922 164.764 106.573 166.71C98.392 171.315 92.8213 179.774 92.3097 189.222C85.2136 185.883 82.1268 178.098 78.236 171.74L77.8713 171.715C76.3653 173.745 84.9467 185.436 86.7386 187.095C93.9518 193.774 103.432 194.971 112.81 194.855C96.9974 205.765 87.4915 213.569 75.6569 229.009C73.4 224.919 71.138 220.931 69.1506 216.705C59.484 196.154 54.4024 168.773 62.4779 146.852C70.0935 149.169 76.9582 149.572 84.8423 149.794Z" fill="#FEFDFD"/>
<path d="M109.983 165.577C110.884 164.149 108 157.467 108.215 156.554L108.438 156.565C109.397 157.694 111.092 163.225 111.561 164.86C109.963 165.186 110.775 165.793 110.027 165.726L109.983 165.577Z" fill="url(#paint0_linear_150_35)"/>
<path d="M119.32 153.897C122.144 153.233 124.969 154.995 125.613 157.824C126.258 160.652 124.475 163.465 121.642 164.089C118.837 164.707 116.059 162.946 115.421 160.146C114.783 157.346 116.524 154.555 119.32 153.897Z" fill="#060D3C"/>
<path d="M120.038 154.943C122.299 154.66 124.356 156.275 124.619 158.538C124.881 160.801 123.247 162.844 120.981 163.085C118.745 163.323 116.735 161.715 116.477 159.481C116.218 157.248 117.807 155.223 120.038 154.943Z" fill="#C8706A"/>
<path d="M118.879 160.836C116.691 158.707 120.185 155.236 121.792 157.386C121.965 159.23 121.191 161.692 118.879 160.836Z" fill="#393758"/>
<path d="M118.879 160.836C116.691 158.707 120.185 155.236 121.792 157.386L121.34 157.514C119.166 157.578 118.545 158.506 119.46 160.521L119.978 160.712L118.879 160.836Z" fill="#060D3C"/>
<path d="M121.34 157.515L121.792 157.387C121.965 159.23 121.191 161.693 118.879 160.837L119.978 160.712L119.46 160.521C121.05 160.038 121.477 159.112 121.34 157.515Z" fill="#1C2348"/>
<path d="M85.8201 158.497C86.1276 158.787 86.1283 158.861 86.3235 159.247C86.2857 160.48 84.5115 161.521 83.8323 162.639C83.049 163.929 82.851 165.209 82.1134 166.488C81.7557 166.213 81.4916 166.136 81.5002 165.682C81.551 163.025 84.1653 160.143 85.8201 158.497Z" fill="#060730"/>
<path d="M114.799 58.3281C120.785 59.8916 122.663 60.1496 128.658 62.442C128.99 61.9549 128.77 62.0932 129.317 61.9803C132.807 62.9416 139.841 68.5742 140.965 72.0067C142.345 73.8875 143.894 76.3929 146.36 76.5516C149.691 76.7662 152.323 76.0581 155.693 76.9391C158.011 76.9322 161.3 76.5434 163.703 76.3583C166.094 76.1746 168.825 76.1127 171.155 75.8797C170.574 76.8776 170.02 77.7396 169.883 78.9114C169.229 84.5179 174.779 88.9581 179.591 90.4876C180.673 90.8316 181.225 90.943 182.327 90.8272L182.661 90.6999L182.888 90.8154C182.817 91.7682 178.923 95.4495 178.142 96.123C176.327 97.6868 168.525 102.906 166.271 102.147C164.957 102.555 163.629 102.919 162.29 103.238C154.28 105.179 146.115 105.077 138.941 100.698C138.156 101.675 138.68 101.415 138.577 102.334C139.076 102.244 139.531 102.687 139.989 102.988C141.054 103.687 142.132 104.16 143.331 104.576C146.313 105.582 149.435 106.109 152.581 106.139C153.22 106.151 157.055 106.035 157.391 106.208L157.453 106.395C156.443 107.813 151.698 110.083 150.112 109.408C138.877 111.639 127.295 107.555 123.061 121.751C122.95 120.972 122.951 119.904 122.841 118.997C122.865 116.319 121.95 113.157 121.134 110.629C117.026 97.8953 109.136 86.8345 102.159 75.563C101.101 73.8532 100.128 72.1235 99.0215 70.4404C104.208 65.3572 108.427 61.7809 114.799 58.3281Z" fill="#BE8D76"/>
<path d="M128.658 62.4423C128.99 61.9551 128.771 62.0935 129.317 61.9805C132.807 62.9418 139.841 68.5744 140.965 72.0069C140.271 71.6381 140.549 71.6641 139.845 71.7527C139.556 71.5216 137.818 69.2866 137.427 68.8299C134.929 65.9106 132.108 64.0609 128.658 62.4423Z" fill="#060730"/>
<path d="M182.327 90.8275L182.661 90.7002L182.888 90.8157C182.817 91.7685 178.924 95.4498 178.142 96.1233C176.327 97.6871 168.525 102.906 166.271 102.147C173.31 99.6352 177.572 96.3807 182.327 90.8275Z" fill="#060730"/>
<path d="M139.846 71.7521C140.55 71.6636 140.272 71.6375 140.965 72.0063C142.345 73.8871 143.895 76.3926 146.36 76.5513C149.692 76.7658 152.323 76.0577 155.694 76.9388C152.978 77.1784 149.037 77.4802 146.357 77.2013C143.338 76.8867 141.487 74.0519 139.846 71.7521Z" fill="#060730"/>
<path d="M138.577 102.334C138.58 102.956 138.713 103.481 138.052 103.688C136.684 102.391 138.374 98.7416 140.02 98.2998C140.29 99.0726 139.385 100.087 138.941 100.698C138.156 101.675 138.68 101.415 138.577 102.334Z" fill="#060730"/>
<path d="M157.453 106.395C156.444 107.813 151.699 110.083 150.112 109.408C153.138 108.552 154.745 107.946 157.453 106.395Z" fill="#060730"/>
<path d="M128.052 75.1041C134.444 74.6709 139.014 84.1981 134.252 88.7687C132.569 90.3845 130.856 90.3268 128.723 90.2906C126.387 90.1516 123.328 89.5397 121.204 88.5285C119.967 85.1458 120.628 81.5626 122.549 78.5573C123.909 76.4283 125.671 75.59 128.052 75.1041Z" fill="#060730"/>
<path d="M127.699 89.2673C126.264 89.061 121.832 88.8087 121.56 87.1545C120.907 83.1907 122.947 77.303 127.29 76.2953C128.488 76.0172 130.342 76.2204 131.392 76.9059L131.356 77.0824L130.716 77.1909L131.596 77.6219C132.111 77.8739 132.927 78.1485 133.484 78.3506C138.472 84.1302 134.056 92.1428 127.699 89.2673Z" fill="#1C2348"/>
<path d="M127.699 89.2673C126.264 89.061 121.832 88.8087 121.56 87.1545C120.907 83.1907 122.947 77.303 127.29 76.2953C128.488 76.0172 130.342 76.2204 131.392 76.9059L131.356 77.0824L130.716 77.1909C127.095 76.8361 125.082 82.5648 125.813 85.6193C126.114 86.8774 127.585 88.6373 127.699 89.2673Z" fill="#FEFDFD"/>
<path d="M123.811 68.0459C124.859 67.8796 126.462 67.791 127.49 68.0208L127.757 68.2401C127.291 68.6978 125.463 68.9231 124.438 69.3202C123.137 69.814 121.945 70.5567 120.928 71.5066C119.67 72.7028 118.948 74.0377 118.282 75.6228C117.991 76.314 117.804 77.0411 117.329 77.5909L117.138 77.5645C116.767 76.4168 117.481 73.4147 118.156 72.4562C119.28 69.9797 121.209 68.6067 123.811 68.0459Z" fill="url(#paint1_linear_150_35)"/>
<path d="M118.156 72.4563C119.28 69.9797 121.209 68.6067 123.811 68.0459C122.686 68.9533 121.378 69.4075 120.158 70.3085C119.281 70.955 118.795 72.1179 118.156 72.4563Z" fill="#05050C"/>
<path d="M220.361 168.588C222.569 169.284 224.884 170.259 227.092 171.025L240.522 175.638C244.49 177.028 251.624 179.166 255.099 181.081C254.921 183.644 253.827 186.723 253.216 189.268C252.141 193.741 250.962 198.162 249.748 202.599C246.977 212.922 244.096 223.214 241.106 233.475C239.861 237.844 238.733 242.125 237.417 246.48C236.486 249.796 235.594 253.123 234.742 256.461C227.623 252.972 218.932 250.669 212.288 247.374C212.801 239.061 214.157 229.781 215.002 221.4L220.361 168.588Z" fill="#FEFDFD"/>
<path d="M225.647 176.281C226.753 176.294 232.716 178.232 233.996 178.778C237.245 180.163 246.212 182.233 248.358 184.526C248.806 186.032 244.691 199.924 244.112 202.178L233.07 244.823C232.594 246.428 232.49 249.117 231.096 250.036C229.587 250.075 217.335 245.245 215.577 244.244C215.585 243.947 215.603 243.65 215.631 243.353C216.544 234.329 218.23 225.399 219.28 216.397C220.128 209.12 221.268 201.922 222.056 194.639C222.656 189.084 223.565 183.436 224.457 177.922C224.583 177.144 225.072 176.759 225.647 176.281Z" fill="#060D3C"/>
<path d="M226.13 177.402C228.716 178.042 232.883 179.571 235.439 180.498C238.498 181.606 244.506 183.436 247.089 185.06C246.249 189.931 243.773 197.435 242.451 202.537L232.179 242.514C231.647 244.529 231.166 246.651 230.685 248.683C226.148 246.857 221.684 245.43 217.032 243.479C219.01 229.652 220.913 215.816 222.74 201.969C223.321 196.878 223.965 191.793 224.671 186.718C225.005 184.135 225.442 179.781 226.13 177.402Z" fill="#C3C0C2"/>
<path d="M229.101 184.335C230.358 184.483 239.875 187.548 241.276 188.161C241.156 189.776 239.56 196.781 239.079 198.449C237.728 198.567 228.26 195.657 227.315 194.76C226.58 194.062 228.589 185.758 229.101 184.335Z" fill="#060D3C"/>
<path d="M229.58 185.388C232.882 186.748 236.785 187.861 240.214 188.796C239.466 191.414 238.851 194.241 238.228 196.905C236.775 196.997 229.576 194.664 227.851 194.066C228.238 191.364 229 188.073 229.58 185.388Z" fill="#C8706A"/>
<path d="M229.772 207.144C232.497 207.282 234.273 208.785 235.476 211.129C235.462 211.299 235.446 211.47 235.427 211.64C235.237 213.277 234.492 216.945 233.072 217.928C232.351 218.427 231.705 218.289 230.9 218.176C227.261 217.346 223.67 216.699 225.085 211.952C225.942 209.079 226.515 207.542 229.772 207.144Z" fill="#060730"/>
<path d="M229.054 208.393C231.199 208.235 232.906 209.434 234.22 211.018C233.897 212.411 233.359 215.592 232.474 216.756C232.23 217.076 231.742 216.965 231.327 216.946C226.909 215.933 224.423 215.735 226.879 210.331C227.455 209.064 227.752 208.841 229.054 208.393Z" fill="#FEFDFD"/>
<path d="M223.271 230.6C227.293 230.498 231.007 232.616 229.757 237.088C229.171 239.185 229.071 240.86 226.781 241.788C225.205 241.319 220.82 240.25 220.234 238.865C219.22 236.467 221.009 231.758 223.271 230.6Z" fill="#060730"/>
<path d="M223.42 231.697C225.512 231.609 227.404 232.612 228.799 234.11C228.623 236.041 228.307 239.493 226.58 240.626C225.097 240.138 222.267 239.138 220.964 238.441C221.126 236.39 221.517 232.729 223.42 231.697Z" fill="#FEFDFD"/>
<path d="M226.115 218.717C228.822 218.505 231.761 220.007 232.181 222.957C232.429 224.695 231.898 227.469 230.798 228.843C230.214 229.572 229.694 229.619 228.785 229.731C227.107 229.505 223.344 228.389 222.58 226.718C222.041 225.54 222.832 222.87 223.335 221.678C223.99 220.125 224.583 219.36 226.115 218.717Z" fill="#060730"/>
<path d="M226.109 219.962C228.914 219.74 230.266 221.017 231.14 223.514C230.784 224.831 230.386 226.667 229.772 227.876C229.539 228.333 229.217 228.306 228.791 228.387C223.533 227.307 222.475 226.708 224.774 221.464C225.147 220.612 225.313 220.437 226.109 219.962Z" fill="#FEFDFD"/>
<path d="M227.633 201.524C229.599 201.574 231.059 202.325 232.892 202.826C235.228 203.464 237.286 205.058 235.212 207.542C233.463 207.194 231.424 206.245 229.697 205.694C227.471 204.982 225.76 203.79 227.633 201.524Z" fill="#060730"/>
<path d="M231.371 203.07C233.457 203.938 236.257 203.836 234.916 206.833L230.585 205.214C230.831 204.503 231.11 203.778 231.371 203.07Z" fill="#D784B8"/>
<path d="M228.028 202.251C229.198 202.289 229.832 202.564 230.9 202.961C230.411 203.61 230.145 204.037 229.73 204.739L229.734 204.875C229.26 205.054 227.768 204.138 227.532 203.543C227.548 202.897 227.657 202.82 228.028 202.251Z" fill="#DF9285"/>
<path d="M285.437 175.559L285.836 175.585C286.04 176.688 266.05 238.308 263.944 245.847C261.388 246.966 257.89 248.114 255.163 249.129L236.801 255.889L236.531 255.971L236.391 255.812C236.52 254.904 237.178 253.048 237.462 252.056L239.384 245.175C241.684 236.746 244.056 228.338 246.499 219.95C248.555 212.629 250.525 205.601 252.404 198.232C253.695 193.17 255.155 186.237 256.7 181.452C264.46 180.211 272.281 178.178 279.996 176.64C281.828 176.275 283.58 175.85 285.437 175.559Z" fill="#FEFDFD"/>
<path d="M208.761 248.819C209.217 248.825 220.941 254.143 222.438 254.796C192.658 266.361 162.991 278.215 133.441 290.358C123.893 294.205 114.48 298.467 104.88 302.206C102.652 303.074 100.344 304.086 98.0373 304.7L96.5808 304.318C92.1886 303.474 86.6633 301.902 82.2773 300.724C84.744 299.51 88.187 298.117 90.7677 296.972L110.75 288.163C123.568 282.503 136.469 277.032 149.449 271.753C155.543 269.294 161.801 266.918 167.931 264.527C181.527 259.226 195.003 253.662 208.761 248.819Z" fill="#DF9285"/>
<path d="M131.146 190.577L131.335 190.633C130.773 191.671 117.978 200.38 116.388 201.548C113.979 203.318 110.199 206.041 107.78 208.017C98.7248 215.412 89.4271 223.907 82.3571 233.281C81.7423 234.096 79.7235 236.459 79.8111 237.356C79.9218 238.49 83.0036 240.915 83.9015 241.689C81.3066 244.022 79.6812 246.506 78.4409 249.791C76.5579 254.717 76.722 260.191 78.897 264.995C82.7608 273.432 92.4743 277.126 101.27 276.523C106.131 276.19 109.965 275.171 114.359 273.109C114.319 273.213 114.276 273.318 114.233 273.421C111.625 279.53 108.373 281.933 102.381 284.381C99.8417 285.335 97.1808 285.93 94.4764 286.149C86.0257 286.838 74.472 284.09 67.9835 278.431C63.1164 274.185 60.8176 268.57 60.3802 262.21C59.721 252.619 63.522 245.347 70.4955 239.016C72.9064 236.828 76.0056 234.593 78.0746 232.196C77.6516 231.472 76.98 230.635 76.4668 229.951C86.2901 216.056 100.725 204.115 115.078 194.921C115.873 194.412 120.198 193.91 121.575 193.603C124.846 192.872 128.048 191.86 131.146 190.577Z" fill="#BE8D76"/>
<path d="M86.3932 92.6178C86.7874 91.1757 87.1743 89.4713 87.6348 88.0729C89.7425 81.758 93.3172 76.0327 98.0656 71.3662C100.416 75.0469 102.919 78.9742 105.229 82.892C111.994 94.3638 122.919 108.821 120.699 122.826C120.061 126.856 117.929 127.481 115.829 130.02C114.863 132.14 109.552 132.91 107.39 132.623C108.203 132.286 108.013 132.586 108.791 132.394C104.226 132.403 102.101 131.509 98.2039 129.138C96.4488 128.986 91.3313 123.55 91.2844 122.011C87.6027 116.243 87.2504 114.007 86.0831 107.648C86.0568 107.747 85.9666 107.914 85.9181 108.014C84.5003 106.222 85.4753 95.2626 85.9206 92.6924L86.2713 92.4934L86.3932 92.6178Z" fill="#836964"/>
<path d="M86.0831 107.648C86.0568 107.747 85.9666 107.914 85.9181 108.014C84.5003 106.222 85.4753 95.2623 85.9206 92.6922L86.2713 92.4932L86.3932 92.6176C85.5356 98.1283 85.4566 102.11 86.0831 107.648Z" fill="#060730"/>
<path d="M98.2038 129.137C96.4486 128.985 91.3312 123.55 91.2842 122.011C93.4979 124.978 95.2048 126.878 98.2038 129.137Z" fill="#060730"/>
<path d="M108.791 132.395C111.715 132.129 113.28 131.385 115.829 130.02C114.863 132.14 109.552 132.91 107.39 132.623C108.203 132.286 108.013 132.586 108.791 132.395Z" fill="#060730"/>
<path d="M82.0613 50.6318L82.1076 50.674C82.1238 50.7464 82.1403 50.8185 82.1568 50.8905C80.6245 52.6961 78.804 55.2923 77.5735 57.2032C71.919 65.9859 68.6607 75.9844 67.3814 86.3215C66.2045 86.5812 65.021 87.0737 63.9575 87.6336C60.0371 89.7398 57.1029 93.3043 55.7893 97.5566C54.4315 101.858 54.8879 106.528 57.0525 110.485C59.2615 114.454 62.9539 117.386 67.3208 118.637C72.6115 120.166 76.4849 119.086 81.1028 116.52C84.4677 126.286 87.8012 130.794 96.1836 136.393C94.1634 136.559 92.1404 136.691 90.1155 136.787C80.8286 136.916 70.8231 136.787 61.8786 133.561C57.8421 132.106 51.4424 121.174 49.7276 117.036C45.1973 106.101 44.308 91.8545 48.9449 80.8092C53.0369 71.0615 60.6748 62.3198 69.5973 56.665C72.5899 54.768 78.6478 52.0509 82.0613 50.6318Z" fill="#FEFDFD"/>
<path d="M144.352 186.778C146.32 186.658 150.387 187.776 152.269 188.445C159.871 191.148 165.046 197.221 168.334 204.447C159.39 208.888 146.102 214.982 135.995 215.338C137.059 211.838 138.327 210.258 140.3 207.23L140.187 206.93C139.7 206.781 139.954 206.804 139.397 206.953C136.831 209.143 134.712 213.519 134.281 216.894C134.871 217.886 136.879 220.091 137.746 221.208C139.026 223.099 139.976 225.21 140.748 227.353C138.875 231.721 136.374 235.593 132.749 238.714C124.062 230.141 119.118 213.993 117.854 202.056C120.06 200.377 122.743 198.785 125.053 197.112C127.146 195.586 129.224 194.039 131.287 192.471C131.901 191.999 135.208 189.367 135.612 189.229C138.776 188.145 141.083 188.15 144.352 186.778Z" fill="#FEFDFD"/>
<path d="M194.873 129.151L195.147 129.105L195.324 129.253C195.064 135.036 194.046 143.048 193.439 149.019C185.459 153.381 175.867 156.887 167.622 160.961C167.526 160.754 167.425 160.55 167.318 160.349C165.284 156.575 161.609 156.681 158.289 158.668C156.958 157.881 154.802 156.451 153.331 156.498C148.595 156.648 143.853 163.563 140.656 166.458L140.472 166.623C139.656 165.809 139.528 165.708 138.545 165.142C136.142 164.477 134.374 165.079 132.124 165.855C133.002 162.325 132.828 160.234 132.374 156.65C134.433 155.941 137.056 154.646 139.16 153.749C144.951 151.317 150.694 148.773 156.388 146.12C164.391 142.407 172.448 138.808 180.555 135.327C185.5 133.166 189.806 131.195 194.873 129.151Z" fill="#836964"/>
<path d="M170.43 148.265C176.257 148.342 174.917 155.567 168.89 156.358C167.737 156.336 166.898 156.301 165.893 155.6C165.283 155.179 164.88 154.52 164.782 153.785C164.34 150.685 167.768 148.657 170.43 148.265Z" fill="#060D3C"/>
<path d="M170.407 149.366C171.038 149.365 172.589 149.816 172.624 150.521C172.745 152.946 169.868 154.334 168.091 154.719C163.483 154.76 166.508 150.084 170.407 149.366Z" fill="#BEA7A2"/>
<path d="M157.441 147.764C163.65 147.07 162.98 153.419 156.313 155.031C153.664 155.41 150.136 154.978 151.947 151.228C152.899 149.256 155.42 148.324 157.441 147.764Z" fill="#060D3C"/>
<path d="M157.557 148.894C158.632 148.809 159.649 148.68 160.284 149.67C160.33 151.591 157.4 152.902 155.847 153.461C150.907 154.407 152.613 150.142 157.557 148.894Z" fill="#FEFDFD"/>
<path d="M181.252 143.326C181.993 143.089 182.756 142.917 183.513 142.731L183.642 143.03C184.695 142.897 185.817 142.979 186.565 143.692C190.018 146.979 184.39 150.789 181.22 150.617C179.204 150.508 177.887 149.318 177.998 147.334C178.271 145.407 179.708 144.283 181.352 143.568L181.252 143.326Z" fill="#060D3C"/>
<path d="M181.252 143.326C181.993 143.089 182.756 142.917 183.512 142.731L183.642 143.03L181.352 143.568L181.252 143.326Z" fill="#393758"/>
<path d="M182.723 144.109C184.013 144.029 186.602 144.005 185.767 146.244C185.264 147.593 183.69 148.216 182.449 148.754C181.442 149.072 179.904 149.317 179.18 148.363C178.513 146.262 181.255 144.832 182.723 144.109Z" fill="#BEA7A2"/>
<path d="M181.253 143.327C180.187 143.463 178.83 143.169 178.217 142.205C177.782 141.523 177.646 140.692 177.841 139.907C178.633 136.843 185.063 134.046 186.728 137.545C187.961 140.137 185.629 141.944 183.513 142.732C182.757 142.917 181.994 143.089 181.253 143.327Z" fill="#060D3C"/>
<path d="M182.948 136.972C186.94 136.643 185.699 140.639 181.265 141.689C179.978 141.764 178.159 141.674 179.087 139.743C179.843 138.171 181.369 137.483 182.948 136.972Z" fill="#BEA7A2"/>
<path d="M144.656 153.153C145.153 153.113 145.804 153.102 146.272 153.246C152.064 155.018 148.656 158.649 145.438 160.367C139.774 162.631 139.153 155.083 144.656 153.153Z" fill="#060D3C"/>
<path d="M144.742 154.28C145.932 154.101 148.472 154.287 147.895 156.17C147.511 157.422 146.26 157.877 145.172 158.379C143.673 158.992 141.743 159.64 142.345 156.773C142.603 155.545 143.645 154.814 144.742 154.28Z" fill="#C3C0C2"/>
<path d="M170.724 140.957C176.809 140.761 175.022 146.513 169.461 147.737C163.091 148.842 164.401 142.064 170.724 140.957Z" fill="#060D3C"/>
<path d="M169.846 142.054C170.863 141.978 171.977 141.839 172.614 142.801C173.022 144.7 170.586 145.574 169.188 145.991C168.319 146.228 167.282 146.424 166.59 145.755C166.067 143.938 168.454 142.619 169.846 142.054Z" fill="#C3C0C2"/>
<path d="M109.617 208.359C109.711 208.467 111.597 217.798 111.85 218.823C114.034 227.669 118.319 237.384 124.153 244.446C115.511 248.572 106.344 248.75 97.2258 246.307C92.2781 244.691 84.4714 241.376 81.0459 237.33C88.0258 227.11 99.795 215.767 109.617 208.359Z" fill="#FEFDFD"/>
<path d="M143.194 236.907L143.512 236.896C144.011 237.299 148.556 247.659 149.27 249.196C133.827 255.815 118.014 261.57 102.622 268.313C99.543 269.662 95.948 270.917 93.0865 272.616C91.6532 272.178 90.7978 271.853 89.4277 271.246C87.352 270.141 81.1361 265.748 81.7607 263.079C82.0574 262.741 82.5554 262.514 82.9763 262.366C93.8584 258.55 104.621 254.402 115.456 250.456C118.555 249.327 121.647 248.508 124.695 247.191C127.426 245.996 129.998 244.469 132.354 242.644C133.143 242.034 135.489 239.979 136.182 239.681C138.404 238.726 140.907 237.859 143.194 236.907Z" fill="#C8706A"/>
<path d="M170.636 224.058C170.984 225.282 171.553 227.064 171.615 228.33C171.63 228.629 171.526 228.606 171.23 228.873L171.597 229.049C171.539 229.32 171.489 229.509 171.495 229.787L171.631 229.961C172.592 231.171 176.583 234.546 176.68 235.289C176.284 235.776 176.294 235.752 175.745 236.074L175.692 236.148C175.916 236.43 175.91 236.309 175.916 236.573C175.017 238.07 173.502 240.478 172.889 242.049L172.907 242.442C173.382 242.525 173.17 242.261 173.719 242.207C174.941 240.13 176.173 237.701 177.498 235.735C183.737 238.304 188.362 241.079 192.002 247.022L191.85 247.111C185.783 250.597 172.071 250.613 165.087 249.899C160.787 249.499 156.531 248.726 152.366 247.586C150.188 242.71 147.685 237.763 145.428 232.856C152.793 232.433 164.045 227.286 170.636 224.058Z" fill="#FEFDFD"/>
<path d="M171.495 229.786L171.631 229.961C172.592 231.171 176.583 234.545 176.68 235.288C176.284 235.775 176.294 235.751 175.745 236.073C174.996 235.635 173.734 235.97 172.945 236.179C172.742 236.232 172.539 236.289 172.338 236.349C171.635 236.526 171.567 236.754 171.127 237.409C170.766 237.857 170.671 238.064 170.203 238.377C169.934 238.554 170.063 238.664 169.563 238.909C168.829 238.646 168.669 237.902 167.76 237.083L167.611 236.951C167.612 236.952 167.278 236.51 167.125 236.379C166.568 235.772 166.045 234.811 165.607 234.086C167.475 232.521 169.514 231.567 171.495 229.786Z" fill="#FEFDFD"/>
<path d="M167.125 236.38C167.553 236.116 170.286 234.52 170.319 234.162C169.682 233.921 169.095 234.418 168.86 233.044C169.034 232.749 168.992 232.67 169.268 232.633C170.216 232.508 172.463 232.085 173.262 232.54C172.924 233.069 172.06 233.618 171.522 234.012C171.654 234.272 171.717 234.271 171.947 234.451L171.751 234.936C171.927 235.191 171.967 235.259 172.001 235.568C172.535 235.646 172.725 235.521 173.237 235.712L172.338 236.349C171.635 236.526 171.567 236.755 171.127 237.41C170.766 237.857 170.67 238.065 170.203 238.378C169.934 238.554 170.063 238.664 169.563 238.909C168.829 238.646 168.668 237.902 167.76 237.083L167.611 236.952C167.612 236.952 167.277 236.511 167.125 236.38Z" fill="#060730"/>
<path d="M167.61 236.952C168.82 236.507 170.283 236.01 171.448 235.506C171.064 236.458 170.687 237.477 170.202 238.378C169.933 238.554 170.062 238.664 169.562 238.909C168.828 238.646 168.668 237.902 167.76 237.084L167.61 236.952Z" fill="#FEFDFD"/>
<path d="M171.75 234.936C173.13 234.421 173.177 233.304 174.623 233.369L174.897 233.582C175.004 234.529 174.093 235.497 173.236 235.713C172.725 235.521 172.534 235.646 172 235.568C171.966 235.26 171.927 235.191 171.75 234.936Z" fill="#1C2348"/>
<path d="M171.229 228.873L171.597 229.049C171.539 229.32 171.488 229.509 171.494 229.787C169.514 231.568 167.475 232.522 165.607 234.087C166.045 234.812 166.567 235.773 167.125 236.38C167.277 236.511 167.611 236.953 167.611 236.952L167.76 237.084C168.668 237.903 168.828 238.646 169.563 238.909C170.063 238.664 169.933 238.554 170.203 238.378C170.67 238.065 170.766 237.857 171.127 237.41C171.566 236.755 171.635 236.526 172.337 236.35C172.539 236.29 172.741 236.233 172.944 236.179C173.734 235.97 174.995 235.636 175.745 236.074L175.692 236.148C175.916 236.43 175.91 236.309 175.916 236.573C175.017 238.07 173.502 240.478 172.889 242.05L172.906 242.442C173.381 242.525 173.17 242.261 173.718 242.208L173.391 242.796C171.19 243.355 165.038 235.819 164.207 233.8C165.433 232.583 169.625 229.873 171.229 228.873Z" fill="#060730"/>
<path d="M172.337 236.35C172.539 236.29 172.741 236.233 172.944 236.179C173.734 235.97 174.995 235.636 175.745 236.074L175.692 236.148C175.916 236.43 175.91 236.309 175.916 236.573C175.017 238.07 173.501 240.478 172.889 242.05C172.172 241.45 170.737 240.448 170.432 239.61C170.353 239.391 170.601 239.168 170.777 238.915C170.775 238.526 170.911 238.418 171.147 238.104L171.235 237.99L171.127 237.41C171.566 236.755 171.635 236.526 172.337 236.35Z" fill="#FEFDFD"/>
<path d="M172.338 236.35C172.539 236.29 172.741 236.233 172.944 236.179C173.734 235.97 174.995 235.636 175.745 236.074L175.692 236.148C175.916 236.43 175.91 236.309 175.916 236.573C174.011 236.835 172.225 237.649 170.777 238.915C170.776 238.526 170.911 238.418 171.148 238.104L171.235 237.99L171.127 237.41C171.567 236.755 171.635 236.526 172.338 236.35Z" fill="#1C2348"/>
<path d="M129.577 168.721C130.019 168.826 129.753 169.643 129.728 170.163C129.653 171.777 129.71 173.383 130.037 174.968C130.739 178.242 132.2 181.306 134.303 183.912C135.119 184.907 135.997 185.768 136.824 186.796C127.277 190.798 117.322 193.942 106.821 193.018C104.451 192.883 101.6 192.261 99.293 191.687C99.365 190.447 99.5215 189.213 99.7614 187.995C101.308 180.089 106.117 173.747 112.715 169.309C118.209 170.696 124.122 169.919 129.577 168.721Z" fill="#FEFDFD"/>
<path d="M59.9871 147.014C56.494 145.936 51.7139 144.492 49.3945 141.357C47.541 138.851 50.8313 134.871 51.2515 132.112C51.5311 130.122 49.1025 128.611 48.0951 127.02C32.6408 102.609 40.0631 69.8138 63.9843 53.8618C71.4897 48.857 77.852 46.6854 86.6717 44.7945C91.96 43.6605 91.0983 42.2764 97.3107 43.4412C95.6902 43.6208 93.809 43.7382 92.2462 44.135C91.0872 44.4289 89.2289 45.3131 88.1218 45.507C78.5445 47.1875 70.6721 50.5093 62.8423 56.2923C61.4763 57.3013 60.2188 58.3562 59.0124 59.5877C58.3612 60.252 57.8185 61.1368 57.1142 61.6732C56.7517 60.5192 59.5872 60.013 59.677 57.631L59.445 57.6551C57.6537 58.818 51.7768 65.0419 50.8443 66.8821C51.1709 67.0449 51.1709 67.0754 51.5206 67.1716C52.7003 66.293 53.2957 64.9924 54.6056 64.0437C54.631 64.5662 51.1877 68.0885 50.6488 68.8667C42.3467 80.859 39.3684 95.8042 42.7878 110.028C43.9022 114.662 45.9071 120.77 48.3668 124.884C49.6722 127.046 51.2629 129.023 53.0961 130.761C52.329 132.88 49.9912 139.211 50.8452 140.984C52.0456 143.475 59.486 145.824 61.9435 146.673C61.4541 147.77 60.9923 149.171 60.6584 150.349C53.4465 175.813 60.4483 203.398 72.9002 226.049C74.3566 228.699 75.2288 230.173 77.3876 232.268C75.1399 234.514 72.3381 236.723 69.9717 238.933C64.181 244.374 60.6244 249.959 59.8945 257.973C58.1844 276.743 72.2851 286.439 89.6539 287.505C100.633 288.179 113.164 284.345 116.005 272.168C116.086 271.817 115.852 271.579 115.648 271.37C114.294 272.694 114.189 272.881 112.351 273.626C101.558 277.93 86.7095 276.991 80.6322 265.676C76.8389 258.613 78.3706 251.085 82.9491 244.786C83.6499 243.822 84.7189 243.022 85.5799 242.179C87.3719 243.054 89.438 244.475 91.4959 245.54C97.1206 248.451 105.281 249.322 111.538 249.34C118.522 249.361 128.423 244.881 133.481 240.205C134.354 239.398 135.138 238.163 136.063 237.215C136.474 238.182 134.305 238.682 133.935 240.699C134.822 240.367 137.299 236.903 137.91 236.002L138.176 235.925C137.125 237.95 134.893 240.342 133.109 241.79C131.426 243.155 129.233 244.26 127.383 245.38C125.534 246.501 123.687 247.614 121.613 248.244C118.302 249.297 116.613 249.592 112.882 250.95C102.536 254.715 91.8343 258.75 81.4644 262.574C81.3778 262.532 81.2911 262.49 81.2045 262.447C81.0785 261.967 81.0861 262.002 81.2667 261.536C81.858 261.172 85.2045 260.026 86.0992 259.693C91.3684 257.736 96.6233 255.739 101.863 253.705C103.308 253.151 108.812 251.517 109.242 250.393C108.425 250.107 105.732 250.443 104.633 250.3C99.5724 249.643 94.3886 248.557 89.9503 245.943C88.9639 245.361 85.8887 243.582 85.0645 244.13C83.0142 245.491 80.9592 250.361 80.3434 252.534C79.0936 256.98 79.6753 261.741 81.9586 265.754C87.4106 275.412 100.844 276.387 110.229 273.112C112.374 272.363 115.303 271.651 116.316 269.36C116.414 269.338 116.512 269.316 116.61 269.295C118.165 272.015 115.519 276.456 114.072 278.731C107.428 289.178 93.1819 289.74 82.0563 287.884C81.8177 287.75 78.2541 286.714 77.7507 286.535C73.4438 285.008 69.295 282.757 65.985 279.588C61.2027 275.009 58.6037 267.739 58.4383 261.198C58.1882 251.294 62.6217 244.322 69.5464 237.711C71.2352 236.098 73.7914 234.209 75.2932 232.61L75.4437 232.448C74.8524 231.39 73.952 230.391 73.3413 229.307C61.6499 208.56 53.7007 184.395 57.2405 160.363C57.9184 155.761 58.948 151.473 59.9871 147.014Z" fill="#393758"/>
<path d="M97.4117 45.902C107.272 45.6839 111.566 46.3945 121.105 48.487C106.867 53.0735 95.3782 62.8372 86.6705 74.7962C83.5738 79.2801 82.1738 82.7114 80.5339 87.7562C79.0771 87.0417 77.9406 86.7288 76.3838 86.2949C76.9151 81.7364 77.8844 77.24 79.2783 72.8674C82.0437 64.0654 85.943 56.4299 92.5433 49.8207C93.8986 48.4635 95.7054 46.7906 97.4117 45.902Z" fill="#FEFDFD"/>
<path d="M123.475 49.0654C125.224 49.7342 127.253 50.2524 129.132 50.9656C127.139 51.5267 125.458 51.8492 123.464 52.5722C113.939 56.0269 106.31 61.1199 99.176 68.263C95.7991 71.3114 92.9467 74.5141 90.3448 78.2513C79.6798 93.5688 80.7916 119.63 96.9147 130.949C100.308 133.332 106.153 134.847 110.3 133.992L110.287 134.163C106.334 135.162 101.78 135.696 97.7043 136.3C96.4256 135.14 94.6676 134.153 93.3247 132.985C82.1465 123.257 77.7819 105.005 81.4822 90.8997C82.1973 87.6528 83.0882 84.4873 84.5393 81.4734C90.6251 68.8327 102.127 58.6732 114.559 52.4621C117.385 51.05 120.493 50.1452 123.475 49.0654Z" fill="#FEFDFD"/>
<path d="M138.352 168.815C144.178 167.345 146.741 159.691 152.516 157.939C154.085 157.464 156.026 158.932 157.256 159.75C156.221 160.32 152.047 162.732 152.299 163.973C154.338 164.85 161.695 154.981 165.398 160.322C166.225 161.515 166.436 163.017 166.23 164.387C165.136 171.652 158.675 175.421 152.1 177.071C150.338 177.523 146.194 178.328 144.891 179.518L144.679 179.686C141.615 176.657 139.762 172.819 138.352 168.815Z" fill="#FEFDFD"/>
<path d="M126.101 128.834C127.006 129.415 127.723 131.836 128.061 132.848C122.453 136.958 114.868 138.779 108.193 140.323C90.2029 144.485 70.6606 143.984 53.5902 136.528L51.8906 135.739C52.3616 134.139 52.6961 133.049 53.3265 131.509C71.4693 142.036 108.705 140.062 126.101 128.834Z" fill="#FEFDFD"/>
<path d="M128.186 134.231C128.687 134.77 129.003 136.707 129.182 137.514C125.119 141.204 112.405 145.265 106.97 146.304C90.8501 149.386 66.1091 150.241 51.8958 140.973L50.8779 140.173C51.0966 139.032 51.3089 137.891 51.5152 136.748C53.377 137.478 55.1705 138.415 57.0663 139.129C74.4915 145.696 94.3283 145.19 112.187 140.657C117.754 139.244 123.42 137.535 128.186 134.231Z" fill="#C8706A"/>
<path d="M223.908 255.332C224.429 255.445 224.604 255.439 225.007 255.794L224.98 256.099C224.452 256.608 223.974 256.819 223.298 257.09L104.825 304.558C102.452 305.501 100.096 306.148 97.8155 307.046C93.0668 305.608 87.7754 304.703 83.0549 303.293C72.8641 300.249 61.995 296.911 52.2828 292.566C46.0091 289.76 39.63 286.264 33.6184 282.929C31.8078 281.925 28.5028 279.405 26.8955 278.797C28.7798 278.214 30.5276 277.404 32.2175 276.887C39.4151 274.685 46.4559 272.175 53.5171 269.564C54.4772 269.324 57.597 267.909 58.1645 268.223C58.4191 268.876 58.4508 268.593 58.2404 269.113C57.0965 270.127 35.398 276.822 31.7684 278.366C31.2944 278.567 30.7061 278.729 30.5083 279.218C31.0371 280.235 33.5626 281.508 34.602 282.119C43.1104 287.121 52.1853 291.694 61.4783 295.097C70.6415 298.379 79.9484 301.246 89.3702 303.687C91.6947 304.305 95.794 305.665 98.1367 305.534C101.016 305.372 113.438 299.737 116.629 298.411L146.427 286.039C172.149 275.54 197.978 265.304 223.908 255.332Z" fill="#393758"/>
<path d="M184.197 215.795L184.452 215.863C184.823 216.45 184.869 217.104 184.994 217.802C183.353 219.775 179.598 221.716 177.327 222.971C176.794 223.266 177.348 222.694 176.86 223.23C177.205 224.777 183.578 230.45 185.169 231.554C186.297 230.15 189.594 225.26 189.34 223.562C189.467 223.534 189.67 223.479 189.784 223.519C195.236 225.403 202.154 229.115 205.679 233.499C202.474 236.524 190.632 237.766 185.963 238.195C180.189 234.905 175.562 234.667 174.009 227.144C173.889 226.564 172.997 224.677 172.731 223.748C173.27 223.362 173.842 222.819 174.343 222.37L174.551 220.639C178.451 219.115 180.624 217.916 184.197 215.795Z" fill="#FEFDFD"/>
<path d="M143.812 252.667L149.641 250.171C149.987 250.93 150.403 251.927 150.814 252.631C152.419 253.554 153.741 253.78 155.555 254.118C154.177 254.629 152.784 255.009 151.441 255.592C146.231 257.811 140.92 259.802 135.681 261.948C129.848 264.337 123.634 267.17 117.748 269.365C117.35 268.77 117.248 268.496 116.643 268.173C115.208 267.911 114.483 269.625 113.519 270.081C111.029 271.261 107.182 272.776 104.451 272.961C101.447 273.612 97.4783 273.444 94.4727 272.914C96.6547 271.865 98.6653 270.968 100.956 270.152C101.555 269.79 103.893 268.867 104.61 268.569L111.187 265.805C117.717 263.093 124.281 260.463 130.876 257.913L143.812 252.667Z" fill="#DF9285"/>
<path d="M143.812 252.667L149.642 250.171C149.988 250.93 150.404 251.927 150.815 252.631C152.42 253.554 153.742 253.78 155.556 254.118C154.178 254.629 152.785 255.009 151.442 255.592C151.28 255.405 149.928 254.275 149.658 254.041C148.091 253.765 145.088 253.377 143.812 252.667Z" fill="#C8706A"/>
<path d="M94.4727 272.914C96.6547 271.865 98.6653 270.968 100.956 270.152L100.394 270.63C103.389 271.249 102.855 272.477 104.451 272.961C101.447 273.612 97.4783 273.444 94.4727 272.914Z" fill="#C8706A"/>
<path d="M116.6 202.812C116.758 203.024 118.451 212.405 118.792 213.773C119.722 217.572 120.946 221.294 122.452 224.904C124.027 228.77 126.118 232.406 128.669 235.711C129.713 237.065 130.86 238.256 131.884 239.602C129.87 241.292 128.097 242.384 125.884 243.783C125.464 243.934 125.679 243.902 125.226 243.798C123.616 242.469 122.229 239.911 121.105 238.126C116.61 230.989 113.975 223.496 112.184 215.286C111.619 212.695 111.248 210.041 110.66 207.433C112.611 205.856 114.591 204.315 116.6 202.812Z" fill="#C8706A"/>
<path d="M86.0277 46.5342L86.2045 46.5545C86.0616 46.9617 83.7619 49.0202 83.2684 49.4995C77.5117 50.65 67.4157 56.4473 62.9949 60.36C52.732 69.4432 45.4633 80.7052 44.966 94.7678C44.4512 109.336 48.9463 121.707 58.582 132.494C57.952 132.22 57.3252 131.94 56.7009 131.652C56.2115 131.441 54.7969 130.835 54.4398 130.574C48.7415 126.41 44.7501 115.57 43.3372 108.908C40.409 95.6431 42.9239 81.7583 50.3189 70.3636C58.576 57.7479 71.3652 49.6061 86.0277 46.5342Z" fill="#FEFDFD"/>
<path d="M171.004 212.307C171.743 212.9 172.525 219.999 172.481 221.266C170.783 222.371 169.018 223.368 167.197 224.253C163.143 226.184 148.699 231.857 144.44 231.124C144.024 230.861 143.896 230.374 143.687 229.897C142.829 227.357 141.946 225.332 140.906 222.871C150.539 221.765 162.725 217.334 171.004 212.307Z" fill="#FEFDFD"/>
<path d="M58.7106 270.109C59.0429 270.403 60.0583 273.238 60.4515 273.95C61.6791 276.171 62.8258 277.602 64.5022 279.478C59.1296 281.627 50.2254 284.541 45.4444 286.994C43.8936 286.213 42.3664 285.386 40.8642 284.515L32.1025 279.572C33.9522 278.568 38.9285 276.946 41.1254 276.177C46.97 274.106 52.8321 272.083 58.7106 270.109Z" fill="#DF9285"/>
<path d="M153.56 180.324C155.837 179.875 163.221 183.549 165.015 184.895C169.926 188.582 176.102 195.187 178.669 200.761C176.288 202.079 174.221 203.192 171.735 204.286C171.613 204.332 170.817 204.652 170.75 204.526C165.195 194.083 158.983 187.904 146.734 185.591C147.763 184.696 148.98 183.621 148.937 182.144C148.926 181.779 148.939 181.586 149.13 181.269C149.958 180.734 152.451 180.484 153.56 180.324Z" fill="#FEFDFD"/>
<path d="M68.5176 86.202C70.2851 73.8399 74.4415 62.3405 82.3805 52.5292C84.6632 49.7086 88.4914 45.596 92.0744 44.6419C92.8313 44.4404 95.0825 44.4556 96.1048 44.3541L96.2597 44.3379L96.4834 44.6626L95.3983 45.5385C83.5691 55.1581 76.8251 71.2431 75.2835 86.2083C72.647 85.955 71.13 86.0404 68.5176 86.202Z" fill="#C8706A"/>
<path d="M70.3322 93.0411C70.8813 92.9928 71.4338 92.9941 71.9826 93.0452C74.7597 93.3305 77.1096 94.5585 78.8784 96.7084C78.7286 100.627 78.6692 102.796 78.9047 106.752C78.7305 106.978 78.5502 107.2 78.3636 107.417C76.3517 109.752 74.5118 110.631 71.4722 110.843C69.5102 110.762 68.0159 110.51 66.3341 109.378C64.3498 108.024 63.0026 105.92 62.603 103.551C62.1748 101.122 62.7515 98.6222 64.201 96.6259C65.7428 94.5448 67.8141 93.4299 70.3322 93.0411Z" fill="#C8706A"/>
<path d="M70.5311 96.5706C73.538 96.0384 76.4132 98.0245 76.9797 101.025C77.5466 104.026 75.5931 106.924 72.5992 107.524C70.6321 107.919 68.6043 107.226 67.2903 105.709C65.9764 104.193 65.5787 102.087 66.2493 100.196C66.9199 98.3051 68.5554 96.9204 70.5311 96.5706Z" fill="#060730"/>
<path d="M70.3387 97.7093C72.7908 97.0844 75.2848 98.5675 75.9065 101.021C76.528 103.474 75.041 105.965 72.5873 106.584C70.1381 107.201 67.6524 105.717 67.0319 103.269C66.4117 100.821 67.8914 98.333 70.3387 97.7093Z" fill="#FEFDFD"/>
<path d="M65.3288 280.419C65.8194 280.68 67.5419 282.261 68.3493 282.762C72.3325 285.234 75.6656 286.614 80.102 287.93C74.617 290.076 69.1891 292.367 63.8247 294.8L62.1718 294.242C57.9788 292.738 50.5473 289.58 46.6279 287.495C48.9569 286.489 51.8428 285.497 54.2521 284.6L65.3288 280.419Z" fill="#DF9285"/>
<path d="M168.554 205.461L168.801 205.514C169.376 206.13 170.639 210.074 170.862 211.055C161.562 216.751 151.159 220.408 140.341 221.785L139.365 220.505C138.276 219.006 136.991 217.698 135.678 216.401C145.196 216.214 160.354 210.269 168.554 205.461Z" fill="#C8706A"/>
<path d="M193.404 150.743C193.854 151.035 196.938 154.934 197.624 155.725C193.382 157.894 188.431 159.778 184.032 161.685C179.126 163.813 174.259 165.993 169.363 168.139C168.42 168.543 167.38 168.936 166.422 169.321C167.585 166.451 167.898 165.315 167.93 162.23C173.917 159.605 179.824 156.755 185.842 154.192C188.366 153.118 190.982 152.027 193.404 150.743Z" fill="#C3C0C2"/>
<path d="M252.566 165.897C253.09 165.804 254.258 165.804 254.84 165.786C254.93 168.523 255.014 173.723 255.694 176.304L254.805 178.344C253.106 177.927 251.023 177.088 249.342 176.496C245.007 174.967 240.776 173.223 236.435 171.696C232.846 170.497 229.277 169.239 225.729 167.922C234.696 167.564 243.647 166.889 252.566 165.897Z" fill="#EFC776"/>
<path d="M176.986 75.5301C176.562 75.3276 176.486 75.3238 176.016 75.32C176.629 74.9953 177.796 75.0559 178.484 74.9645C181.675 74.5389 188.247 75.2756 187.868 79.8506C187.881 81.4579 187.736 82.7921 186.777 84.148L186.352 84.3683C185.483 86.3475 184.871 87.616 183.387 89.175C180.615 89.329 178.051 88.3924 175.77 86.855C173.012 84.9967 170.217 81.5432 171.605 78.0409C171.884 77.3351 172.499 76.5324 172.948 75.9046C174.397 75.7056 175.531 75.5917 176.986 75.5301Z" fill="#4D414A"/>
<path d="M179.972 76.1066C181.486 75.6366 183.615 75.7283 184.463 77.2886C183.298 78.1046 178.598 80.1577 178.142 77.9732C178.428 77.1312 179.232 76.5396 179.972 76.1066Z" fill="#FEFDFD"/>
<path d="M176.986 75.5301C176.562 75.3276 176.486 75.3238 176.016 75.32C176.628 74.9953 177.796 75.0559 178.484 74.9645C181.675 74.5389 188.247 75.2756 187.868 79.8506L187.532 80.0227C187.222 78.5913 186.357 77.1459 184.814 76.8809C184.78 77.2913 184.826 77.0897 184.671 77.4842L184.462 77.2878C183.614 75.7275 181.485 75.6358 179.971 76.1058L179.624 75.7037C178.977 75.4377 177.73 75.525 176.986 75.5301Z" fill="#060730"/>
<path d="M179.624 75.7041L179.971 76.1062C179.231 76.5391 178.427 77.1307 178.141 77.9728C178.597 80.1573 183.298 78.1041 184.462 77.2882L184.671 77.4846C181.171 81.8236 174.282 79.1417 179.624 75.7041Z" fill="#060730"/>
<path d="M187.532 80.0226L187.868 79.8506C187.88 81.4578 187.736 82.7921 186.777 84.1479L186.352 84.3682C186.965 82.7838 187.436 81.713 187.532 80.0226Z" fill="#060730"/>
<path d="M185.517 79.0811C187.464 79.6635 184.712 83.632 180.022 81.7436C179.573 81.4208 179.433 81.4145 179.213 80.9609C182.266 81.4802 183.741 81.7966 185.517 79.0811Z" fill="#060D3C"/>
<path d="M85.4623 244.165C91.0546 248.36 98.7248 250.333 105.6 250.739L95.2558 254.698C90.4246 256.566 85.449 258.257 80.5736 260.128C80.4968 259.49 80.4318 258.85 80.3781 258.209C79.9627 252.802 81.9762 248.194 85.4623 244.165Z" fill="black"/>
<path d="M135.44 166.335C135.998 166.294 136.034 166.256 136.573 166.448C136.951 167.087 136.691 167.814 136.859 168.604C138.028 174.067 141.545 180.139 146.644 182.822C145.183 184.358 143.729 185.04 141.828 185.865C141.037 186.162 140.153 186.412 139.34 186.661C134.806 183.54 128.906 174.699 131.476 168.284C131.965 167.064 134.169 166.589 135.44 166.335Z" fill="#C8706A"/>
<path d="M71.3738 89.7246C74.3648 89.6008 76.8674 90.3984 79.574 91.5895L79.1341 95.684C76.3047 92.7873 72.1269 91.1023 68.1555 92.6277C65.6301 93.5976 63.3894 95.6209 62.3128 98.1196C61.3191 100.405 61.275 102.991 62.19 105.309C64.5244 111.103 70.3525 113.189 75.9949 110.757C77.4326 109.949 77.9614 109.391 79.0856 108.24C79.3985 109.501 79.6527 110.857 79.9152 112.135C77.5732 113.617 75.9428 114.469 73.133 114.809C66.1332 115.655 59.7798 110.408 59.0625 103.436C58.7362 100.265 59.737 96.56 61.8539 94.0806C64.3892 91.1115 67.5576 90.0267 71.3738 89.7246Z" fill="#FEFDFD"/>
<path d="M262.163 165.407C266.961 166.701 271.771 167.95 276.593 169.153C279.483 169.876 286.394 171.62 289.059 172.785C288.579 175.348 286.886 180.239 286.05 182.895L280.76 199.916C276.182 214.587 271.769 229.315 266.754 243.848C266.523 244.516 266.27 244.888 265.787 245.394C265.392 245.583 265.368 245.653 264.951 245.593C265.004 244.895 267.732 237.149 268.142 235.816L281.605 192.709L285.403 180.397C285.725 179.344 287.427 174.494 287.168 173.701C286.672 173.361 285.221 172.706 284.635 172.616C276.752 171.404 269.531 168.513 261.735 166.882C261.692 166.406 261.671 166.59 261.866 166.121L262.163 165.407Z" fill="url(#paint2_linear_150_35)"/>
<path d="M109.581 166.971C110.014 166.939 110.008 166.952 110.444 166.993C111.134 167.349 111.426 167.874 111.901 168.506C103.872 173.722 99.1564 181.886 98.1909 191.394L96.6075 190.892C95.6008 190.574 94.4874 190.129 93.4873 189.754C93.5835 184.53 95.2237 180.237 98.1214 175.885C100.502 172.308 105.207 167.818 109.581 166.971Z" fill="#C8706A"/>
<path d="M261.218 167.918C265.449 168.246 271.454 170.567 275.605 171.756C277.192 172.211 280.685 173.051 281.982 173.601C279.313 174.222 276.16 174.734 273.454 175.227C268.185 175.769 261.438 177.657 256.161 178.496C257.676 176.012 260.017 170.702 261.218 167.918Z" fill="#EFC776"/>
<path d="M142.746 232.261C143.592 232.707 144.136 232.624 144.622 233.559C146.879 237.898 148.814 242.446 150.962 246.846C151.609 248.173 151.94 249.447 152.794 250.658L152.945 250.874C157.009 252.259 163.374 253.054 167.699 253.408C173.31 253.867 188.106 253.848 192.532 250.648C192.924 249.004 193.275 247.836 192.402 246.338C192.211 246.012 191.993 245.406 191.961 245.016C192.399 244.901 192.464 244.925 192.925 244.932L192.701 244.713L192.655 244.548L192.774 244.453C194.085 245.857 195.432 248.03 194.479 249.969C192.978 253.026 188.676 253.536 185.667 254.037C177.124 255.461 168.339 255.036 159.788 253.926C157.302 253.545 154.658 253.289 152.321 252.327C151.241 251.823 150.438 249.872 150.043 248.778C148.032 243.211 144.789 237.757 142.746 232.261Z" fill="#393758"/>
<path d="M156.869 178.646C159.797 180.136 163.762 181.904 166.319 183.561C175.184 189.305 182.169 200.024 185.243 210.044C186.2 213.16 186.948 217.676 189.048 220.082C190.601 221.862 193.342 222.569 195.518 223.525C200.206 225.585 204.83 228.446 207.942 232.597C208.528 232.995 209.354 235.745 208.973 236.305C205.581 241.309 197.104 240.817 191.915 242.699C191.22 242.951 191.981 242.868 191.504 242.9C191.697 242.658 191.891 242.415 192.084 242.173C194.022 241.819 196.093 241.65 197.982 241.1L198.178 240.655L198.423 240.601L198.755 240.936C199.95 240.848 201.464 240.357 202.615 239.989C206.414 238.771 211.345 236.936 207.476 232.305C204.762 229.057 200.712 226.031 196.765 224.351C196.589 224.432 196.394 224.588 196.227 224.705C196.637 225.418 198.733 226.383 199.539 226.812C201.796 228.055 204.235 229.857 205.834 231.901C207.104 233.523 209.126 236.128 206.451 237.51C202.117 239.748 197.182 240.848 192.355 241.335C191.639 241.407 190.977 241.62 190.277 241.464L190.356 241.289C194.817 241.063 199.408 240.038 203.618 238.593C206.075 237.75 208.726 236.705 206.873 233.761C203.25 228.004 194.92 224.163 188.701 222.209L188.742 222.315C187.988 220.814 186.888 219.62 186.231 218.039C184.334 213.427 183.541 208.435 181.44 203.916C176.825 193.987 169.6 185.06 159.228 180.83C158.312 180.457 156.072 179.825 155.456 179.358L155.521 179.13C156.092 178.87 156.263 178.81 156.869 178.646Z" fill="#393758"/>
<path d="M196.795 130.403C198.018 131.578 200.07 134.005 201.346 135.367C201.18 136.334 201.062 137.319 200.956 138.294C200.384 143.564 199.622 148.799 198.932 154.053L198.79 154.339C198.168 154.23 195.501 151.038 194.906 150.37C195.829 144.773 196.487 136.131 196.795 130.403Z" fill="#FEFDFD"/>
<path d="M71.326 87.1883C73.0828 87.0738 79.6799 87.7273 79.9823 89.8109C79.6097 90.325 77.5874 89.2231 76.5832 88.9536C73.8794 88.2313 71.0429 88.1605 68.3071 88.748C64.6969 89.5014 61.7744 91.6203 59.7841 94.7189C57.8198 97.8 57.1444 101.529 57.9027 105.104C59.6651 113.116 67.393 117.628 75.3114 115.899C77.4709 115.192 78.4913 114.663 80.361 113.399L80.7339 115.165C78.2021 116.567 76.1163 117.588 73.1745 117.854C69.1358 118.195 65.1295 116.9 62.0534 114.261C58.9088 111.611 56.7813 107.994 56.4414 103.861C56.0771 99.6812 57.4225 95.5323 60.1704 92.3623C63.3267 88.6911 66.6542 87.5403 71.326 87.1883Z" fill="#FEFDFD"/>
<path d="M123.172 142.487C123.543 142.556 123.555 142.491 123.817 142.808C127.482 147.24 129.895 153.785 130.507 159.433C130.757 161.736 130.627 164.731 130.581 166.955C129.897 167.31 128.978 167.618 128.242 167.893L128.36 166.189C128.511 163.929 128.398 161.658 128.026 159.424C127.244 154.857 124.797 150.093 121.536 146.766C120.837 146.052 119.361 145.045 118.498 144.439C120.155 143.857 121.573 143.205 123.172 142.487Z" fill="#C8706A"/>
<path d="M181.847 207.303C182.627 208.338 183.606 212.244 183.969 213.662C181.756 215.901 177.918 217.387 174.969 218.365L174.575 218.382C174.048 218.042 173.16 212.794 172.863 211.564C176.094 210.279 178.915 209.215 181.847 207.303Z" fill="#FEFDFD"/>
<path d="M183.582 220.766C183.562 220.39 183.595 220.582 183.467 220.191C183.657 219.698 183.632 219.727 184.027 219.378C184.702 219.161 184.766 219.192 185.493 219.257C186.572 220.211 186.945 220.645 187.573 221.998C187.708 222.303 187.859 222.588 188.032 222.873C187.81 223.333 187.915 223.162 187.472 223.505L187.558 223.538C188.238 223.858 188.118 223.684 188.467 224.233C188.448 224.772 188.28 225.011 188.042 225.492L188.04 225.673C187.662 225.964 187.456 226.082 187.198 226.489C187.16 227.201 185.188 229.619 184.595 230.143C183.773 230.004 180.746 227.21 181.02 225.924L181.299 225.75L181.541 225.906C182.869 224.974 183.05 225.108 184.547 224.72C184.738 224.402 185.042 224.267 185.325 223.991C184.878 224.083 184.577 224.133 184.125 224.191C183.714 224.118 183.498 224.031 183.103 223.897C181.907 224.199 181.247 225.011 180.351 225.87C179.711 225.066 179.105 224.433 178.399 223.688C179.883 222.828 181.223 221.974 182.753 221.149L183.582 220.766Z" fill="#1C2348"/>
<path d="M185.378 224.648L185.569 224.921C185.737 224.861 185.982 224.78 186.14 224.711C186.538 225.025 186.814 225.069 186.743 225.627L185.682 226.029L184.442 225.616C184.862 225.271 185.031 225.053 185.378 224.648Z" fill="#1C2348"/>
<path d="M185.378 224.648C185.031 225.053 184.862 225.271 184.442 225.616L185.682 226.029L186.743 225.627L186.995 225.887C187.352 225.735 187.677 225.623 188.042 225.493L188.039 225.674C187.662 225.965 187.456 226.082 187.198 226.49C187.159 227.201 185.187 229.62 184.595 230.143C183.773 230.005 180.746 227.211 181.019 225.925L181.299 225.751L181.54 225.907C182.868 224.974 183.05 225.109 184.546 224.72L185.378 224.648Z" fill="#FEFDFD"/>
<path d="M188.042 225.492L188.039 225.673C187.662 225.964 187.455 226.082 187.197 226.489C187.159 227.201 185.187 229.619 184.595 230.143C184.252 229.489 183.844 229.22 183.281 228.74C183.779 227.956 183.987 227.546 184.67 226.903C184.942 226.564 185.333 226.298 185.682 226.028L186.743 225.626L186.995 225.887C187.352 225.734 187.677 225.623 188.042 225.492Z" fill="#FEFDFD"/>
<path d="M188.042 225.492L188.039 225.673C187.662 225.964 187.456 226.082 187.198 226.489C186.566 226.872 185.894 227.41 185.194 227.388C184.912 227.187 184.989 227.29 184.836 226.998L184.67 226.903C184.942 226.564 185.333 226.298 185.682 226.028L186.743 225.626L186.995 225.887C187.352 225.734 187.677 225.623 188.042 225.492Z" fill="#05050C"/>
<path d="M185.682 226.029L186.743 225.627L186.995 225.888C185.994 226.293 185.743 226.418 184.836 226.998L184.67 226.903C184.942 226.564 185.333 226.298 185.682 226.029Z" fill="#C3C0C2"/>
<path d="M184.595 230.143C183.773 230.004 180.746 227.21 181.019 225.924L181.299 225.75L181.54 225.906L181.209 226.303C181.304 226.956 181.859 227.398 182.402 227.812C183.071 227.652 183.115 226.737 184.255 225.772L184.442 225.615L185.682 226.028C185.333 226.298 184.942 226.564 184.67 226.903C183.988 227.546 183.779 227.956 183.281 228.74C183.844 229.22 184.252 229.489 184.595 230.143Z" fill="#060730"/>
<path d="M178.399 223.689C179.883 222.829 181.223 221.975 182.753 221.149L183.115 221.372C182.258 222.076 182.251 222.229 182.071 223.328L182.194 223.7L182.517 223.858L183.268 223.378L183.342 223.482L183.293 223.63L183.218 223.457L183.226 223.723L183.103 223.897C181.907 224.199 181.247 225.012 180.351 225.871C179.711 225.067 179.105 224.434 178.399 223.689Z" fill="#FEFDFD"/>
<path d="M185.493 219.257C186.572 220.211 186.945 220.645 187.573 221.998L187.232 222.183C186.145 222.233 184.855 221.253 184.631 220.125C184.844 219.514 184.802 219.696 185.493 219.257Z" fill="#FEFDFD"/>
<path d="M187.557 223.539C188.237 223.859 188.118 223.685 188.467 224.234C188.448 224.772 188.279 225.011 188.042 225.493C187.677 225.623 187.352 225.735 186.995 225.887L186.743 225.627C186.814 225.069 186.538 225.024 186.14 224.711C186.607 224.066 186.859 223.857 187.557 223.539Z" fill="#FEFDFD"/>
<path d="M184.125 224.191C185.124 223.141 186.224 222.803 187.472 223.505L187.557 223.539C186.859 223.857 186.607 224.065 186.14 224.71C185.982 224.779 185.737 224.861 185.569 224.921L185.378 224.648L184.546 224.72C184.738 224.402 185.042 224.267 185.325 223.992C184.878 224.083 184.577 224.134 184.125 224.191Z" fill="#060730"/>
<path d="M183.582 220.766C183.98 221.044 184.377 221.324 184.771 221.606L184.79 221.861C184.381 222.055 184.41 222.039 183.961 221.962C183.65 221.62 183.621 221.506 183.222 221.325L183.115 221.372L182.753 221.149L183.582 220.766Z" fill="#FEFDFD"/>
<path d="M192.123 248.687L192.216 248.767C192.345 249.243 192.301 249.237 192.161 249.723C191.804 250.144 191.513 250.412 190.979 250.604C182.248 253.748 161.305 253.359 153.156 249.99C152.986 249.714 152.901 249.481 152.772 249.185C153.01 248.602 155.326 249.478 156.058 249.636C158.135 250.073 160.227 250.44 162.328 250.737C169.911 251.783 185.304 251.854 192.123 248.687Z" fill="#FEFDFD"/>
<path d="M129.915 52.4037L130.232 52.2773L130.365 52.4573C129.867 55.8295 128.196 57.3936 127.123 60.0685C125.402 59.4861 119.374 58.0429 118.492 57.4043L117.759 57.0927L117.729 56.9235C119.567 55.3103 127.459 52.9578 129.915 52.4037Z" fill="#BEA7A2"/>
<path d="M129.915 52.4037L130.231 52.2773L130.365 52.4573C129.867 55.8295 128.195 57.3936 127.123 60.0685C125.402 59.4861 119.373 58.0429 118.492 57.4043C121.184 57.8182 123.929 58.6177 126.558 59.3378C127.785 57.5192 129.077 54.4739 129.915 52.4037Z" fill="#060730"/>
<path d="M179.173 201.844C179.673 202.15 181.16 205.541 181.543 206.365C178.914 207.827 175.97 209.083 173.177 210.205L172.76 210.26C172.238 209.691 171.267 206.709 170.936 205.769C173.802 204.737 176.53 203.348 179.173 201.844Z" fill="#C8706A"/>
<path d="M210.805 238.78C211.179 240.653 210.171 243.738 210.525 244.792C211.095 244.373 211.239 243.735 211.334 243.072C211.47 242.076 211.621 241.083 211.789 240.092C211.853 240.729 211.562 242.835 211.482 243.591C211.314 245.185 211.231 246.342 211.234 247.957C217.941 250.777 224.709 253.446 231.535 255.962C232.422 256.339 233.527 256.69 234.296 257.149C234.493 257.597 234.447 257.358 234.304 257.901L233.969 258.048C231.863 257.995 212.577 249.72 210.015 248.219C209.815 245.379 210.675 241.753 210.805 238.78Z" fill="#393758"/>
<path d="M262.646 246.929C262.819 247.109 262.735 246.991 262.848 247.314C260.891 249.902 240.044 256.791 236.012 258.188L235.82 257.958L235.869 257.518C236.487 256.862 238.943 256.093 239.909 255.749C247.539 253.036 255.381 250.551 262.646 246.929Z" fill="url(#paint3_linear_150_35)"/>
<path d="M96.2598 44.3374L96.3213 43.9572C96.7552 43.7157 98.7744 43.7576 99.4139 43.7534C107.191 43.7068 114.936 44.758 122.419 46.8752C123.051 47.0561 123.842 47.278 124.449 47.5173C123.401 47.8153 122.623 46.746 121.919 47.2932C122.508 47.8743 123.793 47.3764 124.561 48.3225C124.612 48.3171 120.541 47.3313 120.219 47.2643C113.397 45.8425 106.555 44.6697 99.5637 44.6113C98.709 44.6043 97.2735 44.4888 96.4835 44.6621L96.2598 44.3374Z" fill="#393758"/>
<path d="M206.363 234.851L206.594 235.047C207.228 238.169 190.602 241.108 189.263 240.311C188.831 239.927 188.803 239.916 188.455 239.419C188.903 239.209 191.724 238.894 192.414 238.784C196.476 238.134 202.978 237.042 206.363 234.851Z" fill="#FEFDFD"/>
<path d="M122.282 122.816C122.36 123.522 122.43 124.214 122.543 124.915C122.607 126.429 122.727 127.643 122.898 129.142C120.238 130.749 115.964 132.468 112.919 133.322C118.92 130.375 119.725 128.352 122.282 122.816Z" fill="#FEFDFD"/>
<path d="M278.51 174.917C278.742 174.842 278.597 174.873 278.954 174.881C277.773 175.556 272.97 176.248 272.692 176.608C273.645 177.521 277.267 175.474 278.451 176.049C277.928 176.369 263.752 178.929 261.875 179.318C259.948 179.556 257.564 180.588 255.759 180.219L255.698 179.893C256.903 178.957 258.245 179.061 259.673 178.731C265.864 177.3 272.397 176.653 278.51 174.917Z" fill="#393758"/>
<path d="M256.379 166.527C257.29 166.704 258.868 167.2 259.812 167.467C259.097 168.892 258.451 170.367 257.796 171.823C257.521 172.495 257.156 173.24 256.848 173.908L256.379 166.527Z" fill="#EFC776"/>
<path d="M251.83 163.677C253.64 163.441 260.422 163.284 259.842 166.389C259.225 166.157 258.621 165.799 257.937 165.544C254.542 164.28 251.745 164.806 248.259 165.212C247.573 165.292 245.437 165.59 244.885 165.53C245.029 165.397 245.575 165.299 245.809 165.24C248.307 165.156 250.918 164.543 253.785 164.525L253.958 164.525L253.898 164.333C253.522 164.378 253.698 164.387 253.372 164.327L253.391 164.028L253.766 163.804C251.107 163.675 246.314 164.781 244.037 164.489C246.632 164.191 249.23 163.92 251.83 163.677Z" fill="#393758"/>
<path d="M117.036 144.887C118.123 144.712 122.326 148.876 122.76 150.101L122.415 149.949C121.051 148.899 119.653 147.892 118.224 146.932C117.372 146.363 116.59 146.012 115.814 145.353C115.975 145.117 116.683 144.989 117.036 144.887Z" fill="#C8706A"/>
<path d="M138.851 235.158C139.676 234.148 140.869 232.096 141.451 230.934C141.742 231.842 141.978 232.649 142.391 233.512L142.406 234.054C141.761 234.729 139.975 235.209 139.073 235.463L138.809 235.404L138.851 235.158Z" fill="#797784"/>
<path d="M142.738 235.024C142.964 235.44 143.021 235.439 142.985 235.895C142.341 236.759 138.42 237.941 137.19 238.372L136.943 238.205C138.018 236.363 140.496 236.254 142.738 235.024Z" fill="#393758"/>
<path d="M137.158 167.046C138.278 167.098 139.769 167.322 139.371 168.747C138.002 169.494 137.689 168.142 137.158 167.046Z" fill="#1C2348"/>
<path d="M122.842 118.997C122.952 119.904 122.951 120.972 123.061 121.751C123.012 122.86 123.171 124.15 122.543 124.916C122.429 124.214 122.36 123.522 122.282 122.817C122.276 122.603 122.335 122.527 122.398 122.297C122.667 121.323 122.738 120.028 122.842 118.997Z" fill="#060730"/>
<path d="M144.679 179.686L144.891 179.519C145.407 180.258 146.105 180.742 146.803 181.306L146.611 181.39C145.611 180.936 145.256 180.626 144.679 179.686Z" fill="#393758"/>
<defs>
<linearGradient id="paint0_linear_150_35" x1="110.88" y1="159.783" x2="108.119" y2="161.935" gradientUnits="userSpaceOnUse">
<stop stop-color="#030000"/>
<stop offset="1" stop-color="#061138"/>
</linearGradient>
<linearGradient id="paint1_linear_150_35" x1="122.703" y1="73.3053" x2="120.206" y2="70.148" gradientUnits="userSpaceOnUse">
<stop stop-color="#020022"/>
<stop offset="1" stop-color="#041251"/>
</linearGradient>
<linearGradient id="paint2_linear_150_35" x1="249.174" y1="197.583" x2="280.103" y2="210.203" gradientUnits="userSpaceOnUse">
<stop stop-color="#262455"/>
<stop offset="1" stop-color="#3D3956"/>
</linearGradient>
<linearGradient id="paint3_linear_150_35" x1="249.488" y1="253.252" x2="248.985" y2="251.772" gradientUnits="userSpaceOnUse">
<stop stop-color="#423D58"/>
<stop offset="1" stop-color="#2B2C62"/>
</linearGradient>
</defs>
</svg>
